<?xml version="1.0" standalone="no"?>
<!DOCTYPE svg PUBLIC "-//W3C//DTD SVG 20010904//EN"
 "http://www.w3.org/TR/2001/REC-SVG-20010904/DTD/svg10.dtd">
<svg version="1.0" xmlns="http://www.w3.org/2000/svg"
 width="300.000000pt" height="300.000000pt" viewBox="0 0 300.000000 300.000000"
 preserveAspectRatio="xMidYMid meet">
<metadata>
Created by potrace 1.14, written by Peter Selinger 2001-2017
</metadata>
<g transform="translate(0.000000,300.000000) scale(0.100000,-0.100000)"
fill="#000000" stroke="none">
<path d="M714 2071 c-32 -14 -64 -60 -64 -93 0 -40 46 -85 96 -93 82 -15 113
-68 52 -89 -37 -13 -76 6 -90 44 -8 24 -16 30 -39 30 -25 0 -29 -4 -29 -26 0
-90 123 -146 208 -94 38 23 56 62 47 106 -8 43 -34 64 -107 83 -53 14 -64 20
-66 40 -7 50 69 59 96 11 12 -22 24 -30 45 -30 22 0 27 4 27 25 0 14 -13 39
-28 56 -23 26 -37 32 -78 35 -27 2 -59 0 -70 -5z"/>
<path d="M1150 1905 l0 -165 35 0 35 0 0 60 0 60 43 0 c87 0 142 69 117 145
-18 54 -42 65 -142 65 l-88 0 0 -165z m160 90 c7 -8 10 -25 6 -40 -6 -22 -12
-25 -51 -25 l-45 0 0 40 c0 40 0 40 39 40 22 0 44 -6 51 -15z"/>
<path d="M1650 1905 l0 -165 111 0 110 0 -3 28 c-3 27 -4 27 -80 30 l-78 3 0
134 0 135 -30 0 -30 0 0 -165z"/>
<path d="M2140 2040 c0 -28 2 -30 40 -30 l40 0 0 -105 0 -105 -40 0 c-38 0
-40 -2 -40 -30 l0 -30 110 0 110 0 0 30 c0 28 -2 30 -40 30 l-40 0 0 105 0
105 40 0 c38 0 40 2 40 30 l0 30 -110 0 -110 0 0 -30z"/>
<path d="M650 1320 c0 -29 2 -30 45 -30 l45 0 0 -135 0 -135 30 0 30 0 0 135
0 135 45 0 c43 0 45 1 45 30 l0 30 -120 0 -120 0 0 -30z"/>
<path d="M1140 1320 c0 -29 2 -30 45 -30 l45 0 0 -135 0 -135 35 0 35 0 0 134
0 135 43 3 c38 3 42 6 45 31 l3 27 -125 0 -126 0 0 -30z"/>
<path d="M1650 1185 l0 -165 110 0 110 0 0 30 0 30 -80 0 -80 0 0 35 0 34 73
3 72 3 0 30 0 30 -72 3 -73 3 0 34 0 35 75 0 75 0 0 30 0 30 -105 0 -105 0 0
-165z"/>
<path d="M2140 1185 l0 -165 30 0 30 0 0 61 0 60 48 -3 47 -3 3 -57 3 -58 34
0 35 0 0 60 c0 47 -4 64 -20 80 l-20 20 20 20 c29 29 27 94 -5 125 -22 23 -32
25 -115 25 l-90 0 0 -165z m160 90 c7 -8 10 -25 6 -40 -6 -23 -11 -25 -56 -25
l-50 0 0 40 0 40 44 0 c26 0 48 -6 56 -15z"/>
</g>
</svg>
